<mxfile host="app.diagrams.net" agent="Mozilla/5.0 (Windows NT 10.0; Win64; x64) AppleWebKit/537.36 (KHTML, like Gecko) Chrome/140.0.0.0 Safari/537.36 Edg/140.0.0.0" version="28.1.2">
  <diagram name="第 1 页" id="2LADlyf4JBiEzu5A49ws">
    <mxGraphModel dx="572" dy="310" grid="1" gridSize="10" guides="1" tooltips="1" connect="1" arrows="1" fold="1" page="1" pageScale="1" pageWidth="827" pageHeight="1169" math="0" shadow="0">
      <root>
        <mxCell id="0" />
        <mxCell id="1" parent="0" />
        <mxCell id="Bl1R4P2W0IZf69fJZ_-c-17" value="" style="ellipse;whiteSpace=wrap;html=1;aspect=fixed;" vertex="1" parent="1">
          <mxGeometry x="90" y="328" width="162.5" height="162.5" as="geometry" />
        </mxCell>
        <mxCell id="Bl1R4P2W0IZf69fJZ_-c-1" value="" style="ellipse;whiteSpace=wrap;html=1;aspect=fixed;fillColor=#49B2C7;" vertex="1" parent="1">
          <mxGeometry x="110" y="380" width="20" height="20" as="geometry" />
        </mxCell>
        <mxCell id="Bl1R4P2W0IZf69fJZ_-c-2" value="" style="ellipse;whiteSpace=wrap;html=1;aspect=fixed;fillColor=#F6948D;" vertex="1" parent="1">
          <mxGeometry x="132" y="349" width="20" height="20" as="geometry" />
        </mxCell>
        <mxCell id="Bl1R4P2W0IZf69fJZ_-c-3" value="" style="ellipse;whiteSpace=wrap;html=1;aspect=fixed;fillColor=#F6948D;" vertex="1" parent="1">
          <mxGeometry x="170" y="460" width="20" height="20" as="geometry" />
        </mxCell>
        <mxCell id="Bl1R4P2W0IZf69fJZ_-c-5" value="" style="ellipse;whiteSpace=wrap;html=1;aspect=fixed;fillColor=#F6948D;" vertex="1" parent="1">
          <mxGeometry x="220" y="410" width="20" height="20" as="geometry" />
        </mxCell>
        <mxCell id="Bl1R4P2W0IZf69fJZ_-c-6" value="" style="ellipse;whiteSpace=wrap;html=1;aspect=fixed;fillColor=#B3A6C6;" vertex="1" parent="1">
          <mxGeometry x="210" y="370" width="20" height="20" as="geometry" />
        </mxCell>
        <mxCell id="Bl1R4P2W0IZf69fJZ_-c-7" value="" style="ellipse;whiteSpace=wrap;html=1;aspect=fixed;fillColor=#89BC96;" vertex="1" parent="1">
          <mxGeometry x="200" y="440" width="20" height="20" as="geometry" />
        </mxCell>
        <mxCell id="Bl1R4P2W0IZf69fJZ_-c-8" value="" style="ellipse;whiteSpace=wrap;html=1;aspect=fixed;fillColor=#49B2C7;" vertex="1" parent="1">
          <mxGeometry x="174" y="339" width="20" height="20" as="geometry" />
        </mxCell>
        <mxCell id="Bl1R4P2W0IZf69fJZ_-c-9" value="" style="ellipse;whiteSpace=wrap;html=1;aspect=fixed;fillColor=#B3A6C6;" vertex="1" parent="1">
          <mxGeometry x="158" y="426" width="20" height="20" as="geometry" />
        </mxCell>
        <mxCell id="Bl1R4P2W0IZf69fJZ_-c-10" value="" style="ellipse;whiteSpace=wrap;html=1;aspect=fixed;fillColor=#49B2C7;" vertex="1" parent="1">
          <mxGeometry x="130" y="450" width="20" height="20" as="geometry" />
        </mxCell>
        <mxCell id="Bl1R4P2W0IZf69fJZ_-c-11" value="" style="ellipse;whiteSpace=wrap;html=1;aspect=fixed;fillColor=#F6948D;" vertex="1" parent="1">
          <mxGeometry x="110" y="420" width="20" height="20" as="geometry" />
        </mxCell>
        <mxCell id="Bl1R4P2W0IZf69fJZ_-c-12" value="" style="ellipse;whiteSpace=wrap;html=1;aspect=fixed;fillColor=#F6948D;" vertex="1" parent="1">
          <mxGeometry x="168" y="368" width="20" height="20" as="geometry" />
        </mxCell>
        <mxCell id="Bl1R4P2W0IZf69fJZ_-c-13" value="" style="ellipse;whiteSpace=wrap;html=1;aspect=fixed;fillColor=#FFCA5A;" vertex="1" parent="1">
          <mxGeometry x="142" y="396" width="20" height="20" as="geometry" />
        </mxCell>
        <mxCell id="Bl1R4P2W0IZf69fJZ_-c-14" value="" style="ellipse;whiteSpace=wrap;html=1;aspect=fixed;fillColor=#49B2C7;" vertex="1" parent="1">
          <mxGeometry x="182" y="400" width="20" height="20" as="geometry" />
        </mxCell>
        <mxCell id="Bl1R4P2W0IZf69fJZ_-c-18" value="U" style="ellipse;whiteSpace=wrap;html=1;aspect=fixed;fillColor=#F6948D;" vertex="1" parent="1">
          <mxGeometry x="60" y="270" width="20" height="20" as="geometry" />
        </mxCell>
        <mxCell id="Bl1R4P2W0IZf69fJZ_-c-20" value="A" style="ellipse;whiteSpace=wrap;html=1;aspect=fixed;fillColor=#FFCA5A;" vertex="1" parent="1">
          <mxGeometry x="90" y="270" width="20" height="20" as="geometry" />
        </mxCell>
        <mxCell id="Bl1R4P2W0IZf69fJZ_-c-27" value="M" style="ellipse;whiteSpace=wrap;html=1;aspect=fixed;fillColor=#49B2C7;" vertex="1" parent="1">
          <mxGeometry x="122" y="270" width="20" height="20" as="geometry" />
        </mxCell>
        <mxCell id="Bl1R4P2W0IZf69fJZ_-c-33" value="G" style="ellipse;whiteSpace=wrap;html=1;aspect=fixed;fillColor=#B3A6C6;" vertex="1" parent="1">
          <mxGeometry x="152" y="270" width="20" height="20" as="geometry" />
        </mxCell>
        <mxCell id="Bl1R4P2W0IZf69fJZ_-c-34" value="" style="endArrow=none;html=1;rounded=0;exitX=0.415;exitY=0.01;exitDx=0;exitDy=0;exitPerimeter=0;entryX=0.674;entryY=0.969;entryDx=0;entryDy=0;entryPerimeter=0;" edge="1" parent="1" source="Bl1R4P2W0IZf69fJZ_-c-13" target="Bl1R4P2W0IZf69fJZ_-c-2">
          <mxGeometry width="50" height="50" relative="1" as="geometry">
            <mxPoint x="260" y="370" as="sourcePoint" />
            <mxPoint x="310" y="320" as="targetPoint" />
          </mxGeometry>
        </mxCell>
        <mxCell id="Bl1R4P2W0IZf69fJZ_-c-35" value="" style="endArrow=none;html=1;rounded=0;entryX=0.062;entryY=0.771;entryDx=0;entryDy=0;exitX=1;exitY=0;exitDx=0;exitDy=0;entryPerimeter=0;" edge="1" parent="1" source="Bl1R4P2W0IZf69fJZ_-c-13" target="Bl1R4P2W0IZf69fJZ_-c-12">
          <mxGeometry width="50" height="50" relative="1" as="geometry">
            <mxPoint x="163" y="391" as="sourcePoint" />
            <mxPoint x="150" y="380" as="targetPoint" />
          </mxGeometry>
        </mxCell>
        <mxCell id="Bl1R4P2W0IZf69fJZ_-c-36" value="" style="endArrow=none;html=1;rounded=0;entryX=0;entryY=0;entryDx=0;entryDy=0;exitX=1;exitY=1;exitDx=0;exitDy=0;" edge="1" parent="1" source="Bl1R4P2W0IZf69fJZ_-c-8" target="Bl1R4P2W0IZf69fJZ_-c-6">
          <mxGeometry width="50" height="50" relative="1" as="geometry">
            <mxPoint x="199" y="370" as="sourcePoint" />
            <mxPoint x="190" y="383" as="targetPoint" />
          </mxGeometry>
        </mxCell>
        <mxCell id="Bl1R4P2W0IZf69fJZ_-c-37" value="" style="endArrow=none;html=1;rounded=0;entryX=1;entryY=0;entryDx=0;entryDy=0;exitX=0;exitY=1;exitDx=0;exitDy=0;" edge="1" parent="1" source="Bl1R4P2W0IZf69fJZ_-c-6" target="Bl1R4P2W0IZf69fJZ_-c-14">
          <mxGeometry width="50" height="50" relative="1" as="geometry">
            <mxPoint x="199" y="390" as="sourcePoint" />
            <mxPoint x="190" y="403" as="targetPoint" />
          </mxGeometry>
        </mxCell>
        <mxCell id="Bl1R4P2W0IZf69fJZ_-c-38" value="" style="endArrow=none;html=1;rounded=0;entryX=0.321;entryY=0.037;entryDx=0;entryDy=0;exitX=0.65;exitY=0.972;exitDx=0;exitDy=0;exitPerimeter=0;entryPerimeter=0;" edge="1" parent="1" source="Bl1R4P2W0IZf69fJZ_-c-12" target="Bl1R4P2W0IZf69fJZ_-c-14">
          <mxGeometry width="50" height="50" relative="1" as="geometry">
            <mxPoint x="169" y="410" as="sourcePoint" />
            <mxPoint x="160" y="423" as="targetPoint" />
          </mxGeometry>
        </mxCell>
        <mxCell id="Bl1R4P2W0IZf69fJZ_-c-39" value="" style="endArrow=none;html=1;rounded=0;entryX=0.008;entryY=0.356;entryDx=0;entryDy=0;exitX=0.979;exitY=0.625;exitDx=0;exitDy=0;entryPerimeter=0;exitPerimeter=0;" edge="1" parent="1" source="Bl1R4P2W0IZf69fJZ_-c-14" target="Bl1R4P2W0IZf69fJZ_-c-5">
          <mxGeometry width="50" height="50" relative="1" as="geometry">
            <mxPoint x="210" y="400" as="sourcePoint" />
            <mxPoint x="230" y="400" as="targetPoint" />
          </mxGeometry>
        </mxCell>
        <mxCell id="Bl1R4P2W0IZf69fJZ_-c-40" value="" style="endArrow=none;html=1;rounded=0;entryX=0.223;entryY=0.913;entryDx=0;entryDy=0;exitX=0.767;exitY=0.058;exitDx=0;exitDy=0;exitPerimeter=0;entryPerimeter=0;" edge="1" parent="1" source="Bl1R4P2W0IZf69fJZ_-c-1" target="Bl1R4P2W0IZf69fJZ_-c-2">
          <mxGeometry width="50" height="50" relative="1" as="geometry">
            <mxPoint x="130" y="370" as="sourcePoint" />
            <mxPoint x="150" y="370" as="targetPoint" />
          </mxGeometry>
        </mxCell>
        <mxCell id="Bl1R4P2W0IZf69fJZ_-c-41" value="" style="endArrow=none;html=1;rounded=0;entryX=0.5;entryY=1;entryDx=0;entryDy=0;exitX=0.5;exitY=0;exitDx=0;exitDy=0;" edge="1" parent="1" source="Bl1R4P2W0IZf69fJZ_-c-11" target="Bl1R4P2W0IZf69fJZ_-c-1">
          <mxGeometry width="50" height="50" relative="1" as="geometry">
            <mxPoint x="140" y="398" as="sourcePoint" />
            <mxPoint x="152" y="380" as="targetPoint" />
          </mxGeometry>
        </mxCell>
        <mxCell id="Bl1R4P2W0IZf69fJZ_-c-42" value="" style="endArrow=none;html=1;rounded=0;entryX=0.69;entryY=0.952;entryDx=0;entryDy=0;exitX=0.229;exitY=0.077;exitDx=0;exitDy=0;entryPerimeter=0;exitPerimeter=0;" edge="1" parent="1" source="Bl1R4P2W0IZf69fJZ_-c-10" target="Bl1R4P2W0IZf69fJZ_-c-11">
          <mxGeometry width="50" height="50" relative="1" as="geometry">
            <mxPoint x="140" y="450" as="sourcePoint" />
            <mxPoint x="140" y="430" as="targetPoint" />
          </mxGeometry>
        </mxCell>
        <mxCell id="Bl1R4P2W0IZf69fJZ_-c-43" value="" style="endArrow=none;html=1;rounded=0;entryX=0.96;entryY=0.731;entryDx=0;entryDy=0;exitX=0;exitY=0.5;exitDx=0;exitDy=0;entryPerimeter=0;" edge="1" parent="1" source="Bl1R4P2W0IZf69fJZ_-c-3" target="Bl1R4P2W0IZf69fJZ_-c-10">
          <mxGeometry width="50" height="50" relative="1" as="geometry">
            <mxPoint x="161" y="473" as="sourcePoint" />
            <mxPoint x="150" y="460" as="targetPoint" />
          </mxGeometry>
        </mxCell>
        <mxCell id="Bl1R4P2W0IZf69fJZ_-c-44" value="" style="endArrow=none;html=1;rounded=0;entryX=0.912;entryY=0.25;entryDx=0;entryDy=0;exitX=0.1;exitY=0.804;exitDx=0;exitDy=0;entryPerimeter=0;exitPerimeter=0;" edge="1" parent="1" source="Bl1R4P2W0IZf69fJZ_-c-7" target="Bl1R4P2W0IZf69fJZ_-c-3">
          <mxGeometry width="50" height="50" relative="1" as="geometry">
            <mxPoint x="211" y="455" as="sourcePoint" />
            <mxPoint x="190" y="450" as="targetPoint" />
          </mxGeometry>
        </mxCell>
        <mxCell id="Bl1R4P2W0IZf69fJZ_-c-45" value="" style="endArrow=none;html=1;rounded=0;entryX=0.244;entryY=0.933;entryDx=0;entryDy=0;entryPerimeter=0;exitX=0.811;exitY=0.122;exitDx=0;exitDy=0;exitPerimeter=0;" edge="1" parent="1" source="Bl1R4P2W0IZf69fJZ_-c-7" target="Bl1R4P2W0IZf69fJZ_-c-5">
          <mxGeometry width="50" height="50" relative="1" as="geometry">
            <mxPoint x="221" y="465" as="sourcePoint" />
            <mxPoint x="200" y="460" as="targetPoint" />
          </mxGeometry>
        </mxCell>
        <mxCell id="Bl1R4P2W0IZf69fJZ_-c-46" value="" style="endArrow=none;html=1;rounded=0;entryX=1;entryY=0;entryDx=0;entryDy=0;exitX=0.235;exitY=0.92;exitDx=0;exitDy=0;exitPerimeter=0;" edge="1" parent="1" source="Bl1R4P2W0IZf69fJZ_-c-14" target="Bl1R4P2W0IZf69fJZ_-c-9">
          <mxGeometry width="50" height="50" relative="1" as="geometry">
            <mxPoint x="196" y="420" as="sourcePoint" />
            <mxPoint x="180" y="436" as="targetPoint" />
          </mxGeometry>
        </mxCell>
        <mxCell id="Bl1R4P2W0IZf69fJZ_-c-47" value="" style="endArrow=none;html=1;rounded=0;entryX=0.878;entryY=0.2;entryDx=0;entryDy=0;exitX=0.083;exitY=0.8;exitDx=0;exitDy=0;exitPerimeter=0;entryPerimeter=0;" edge="1" parent="1" source="Bl1R4P2W0IZf69fJZ_-c-9" target="Bl1R4P2W0IZf69fJZ_-c-10">
          <mxGeometry width="50" height="50" relative="1" as="geometry">
            <mxPoint x="161" y="440" as="sourcePoint" />
            <mxPoint x="150" y="454" as="targetPoint" />
          </mxGeometry>
        </mxCell>
        <mxCell id="Bl1R4P2W0IZf69fJZ_-c-48" value="O" style="ellipse;whiteSpace=wrap;html=1;aspect=fixed;fillColor=#89BC96;" vertex="1" parent="1">
          <mxGeometry x="182" y="270" width="20" height="20" as="geometry" />
        </mxCell>
      </root>
    </mxGraphModel>
  </diagram>
</mxfile>
